<?xml version="1.0" standalone="no"?>
<!DOCTYPE svg PUBLIC "-//W3C//DTD SVG 20010904//EN"
 "http://www.w3.org/TR/2001/REC-SVG-20010904/DTD/svg10.dtd">
<svg version="1.0" xmlns="http://www.w3.org/2000/svg"
 width="1125.000000pt" height="1125.000000pt" viewBox="0 0 1125.000000 1125.000000"
 preserveAspectRatio="xMidYMid meet">

<g transform="translate(0.000000,1125.000000) scale(0.100000,-0.100000)"
fill="#000000" stroke="none">
<path d="M5365 9859 c-288 -24 -614 -98 -920 -208 -182 -65 -198 -71 -209 -79
-6 -5 -33 -17 -61 -27 -78 -28 -265 -118 -325 -156 -30 -19 -80 -47 -110 -64
-142 -75 -400 -258 -558 -394 -179 -155 -477 -488 -577 -643 -9 -16 -23 -28
-30 -28 -7 0 -28 26 -45 58 -183 323 -439 495 -796 532 -148 16 -334 -3 -334
-33 0 -7 26 -21 58 -31 32 -9 81 -30 110 -47 47 -26 51 -31 40 -49 -16 -25
-13 -27 70 -56 83 -29 179 -82 187 -103 4 -10 -5 -25 -25 -41 -16 -14 -30 -28
-30 -32 0 -3 39 -27 88 -53 107 -57 181 -106 182 -121 0 -6 -23 -20 -52 -30
-28 -11 -53 -24 -55 -29 -2 -6 34 -30 79 -53 86 -44 250 -173 229 -180 -6 -2
-18 1 -25 7 -28 23 -175 66 -311 90 -73 13 -263 9 -366 -7 -91 -15 -211 -53
-216 -68 -2 -7 23 -14 68 -18 161 -15 407 -86 559 -162 49 -25 90 -48 90 -52
0 -4 -59 -8 -131 -7 -124 0 -132 -1 -149 -22 -10 -13 -29 -23 -44 -23 -14 0
-26 -4 -26 -10 0 -5 -9 -10 -20 -10 -11 0 -20 6 -20 14 0 8 -7 17 -16 20 -15
6 -15 8 1 25 9 11 15 28 13 38 -3 15 -13 18 -73 17 -118 -3 -286 -63 -419
-152 -92 -61 -278 -241 -327 -316 -46 -71 -48 -80 -13 -72 106 27 110 21 77
-104 -31 -117 -41 -287 -24 -396 14 -82 43 -179 55 -179 5 0 20 36 35 80 52
156 233 423 270 401 6 -4 11 -18 11 -32 0 -13 4 -24 8 -24 5 0 32 29 61 65 52
63 117 125 133 125 5 0 8 -20 8 -45 0 -25 4 -45 8 -45 5 0 46 25 92 56 103 68
155 95 245 124 39 12 75 29 81 36 14 17 44 18 44 2 0 -7 -28 -34 -63 -59 -139
-104 -296 -260 -408 -407 -80 -106 -174 -308 -211 -452 -28 -113 -31 -139 -31
-275 0 -100 5 -173 16 -220 38 -169 125 -380 157 -380 11 0 17 17 23 65 4 36
17 119 28 185 43 251 43 253 84 215 13 -12 31 -20 42 -18 22 4 23 56 4 232 -8
75 -9 122 -3 128 6 6 27 -13 57 -52 39 -50 50 -59 60 -48 14 14 41 112 83 292
15 66 32 121 38 123 6 2 30 -24 54 -58 35 -50 45 -58 55 -47 19 21 67 162 84
251 14 72 19 82 36 79 57 -9 59 -8 65 28 9 55 17 62 45 44 13 -9 29 -13 35 -9
19 12 10 -25 -31 -123 -54 -130 -61 -150 -108 -347 -74 -311 -97 -562 -87
-930 l7 -230 -49 -42 c-28 -23 -59 -62 -71 -86 -41 -85 -19 -203 43 -227 21
-8 24 -16 28 -76 4 -62 7 -69 40 -98 31 -27 37 -38 41 -84 5 -59 26 -96 74
-127 25 -16 32 -29 37 -68 5 -37 16 -59 45 -90 37 -41 37 -43 35 -116 -1 -63
-4 -76 -20 -81 -11 -4 -95 -11 -189 -15 -259 -11 -564 -40 -579 -55 -5 -5 -31
-10 -56 -10 -26 0 -91 -6 -146 -14 -54 -8 -142 -19 -194 -26 -117 -15 -371
-58 -378 -64 -2 -3 -2 -11 1 -18 7 -17 213 -275 227 -283 5 -3 97 7 203 24
105 17 219 34 252 38 l60 8 3 89 3 89 -91 -7 c-50 -4 -159 -16 -243 -26 -194
-25 -217 -26 -217 -2 0 16 15 21 93 35 140 25 393 57 448 57 l49 0 0 -623 0
-623 -193 -13 c-105 -7 -210 -15 -232 -18 l-40 -6 32 27 c29 24 47 29 155 41
68 8 148 16 178 17 l55 3 3 93 3 92 -193 -2 -192 -3 -66 -81 c-110 -136 -230
-306 -230 -325 0 -23 39 -24 265 -8 83 6 285 12 450 13 165 2 410 9 545 15
135 7 286 11 335 9 l90 -3 5 -175 5 -175 440 -5 440 -5 125 -88 c201 -142 534
-330 705 -399 22 -9 72 -29 110 -45 244 -102 625 -208 875 -243 309 -44 662
-61 825 -41 44 6 134 15 200 22 565 52 1200 285 1722 630 76 51 140 95 143 99
3 3 26 21 52 38 l47 32 440 0 441 0 0 158 c0 86 3 167 6 180 6 21 11 22 113
21 58 0 275 -8 481 -18 215 -10 382 -14 392 -9 10 5 102 4 210 -2 503 -25 468
-25 469 -4 1 10 0 27 -1 37 -1 18 -178 267 -237 336 l-30 34 -187 4 -187 3 3
-92 3 -93 177 -16 c138 -13 182 -21 202 -35 14 -11 26 -22 26 -25 0 -4 -28 -5
-62 -2 -35 3 -135 10 -223 16 l-160 12 -3 682 -2 682 -58 6 c-31 3 -93 10
-137 15 -96 12 -419 30 -525 30 l-76 0 2 91 c2 80 5 93 23 106 27 18 61 84 61
116 0 16 12 34 36 52 42 32 64 78 64 133 0 31 6 42 31 61 37 28 59 76 59 133
1 37 5 46 33 63 42 27 61 68 59 134 -2 66 -31 119 -101 182 l-51 46 7 299 c6
309 -1 463 -34 654 -31 189 -118 487 -179 616 -29 62 -30 67 -4 59 12 -4 28
-1 37 6 13 11 17 10 29 -6 8 -10 14 -27 14 -36 0 -39 11 -50 44 -44 l32 6 23
-98 c25 -107 77 -243 92 -243 6 0 27 27 47 60 20 33 42 60 49 60 6 0 21 -41
33 -92 37 -163 81 -313 95 -327 11 -11 20 -4 55 40 23 30 47 56 52 58 6 2 7
-58 3 -173 -7 -159 -6 -176 9 -182 11 -4 26 2 42 17 14 13 28 19 33 13 8 -9
43 -197 61 -334 12 -90 28 -150 39 -150 13 0 89 169 121 270 85 270 59 593
-66 843 -83 165 -181 304 -298 426 -92 95 -215 191 -245 191 -12 0 -21 6 -21
14 0 8 -12 24 -27 35 -14 12 -24 23 -22 25 6 7 230 -69 279 -94 25 -12 79 -49
122 -81 57 -43 78 -54 82 -44 3 8 3 22 0 30 -4 8 -3 23 0 32 5 13 26 -2 99
-75 51 -51 96 -92 100 -92 4 0 7 9 7 20 0 29 27 36 52 14 67 -62 222 -324 248
-422 30 -117 72 42 74 283 1 148 -2 181 -22 252 -12 45 -22 91 -22 104 0 21 3
22 60 16 35 -4 60 -3 60 3 0 12 -80 112 -144 179 -116 121 -332 262 -461 301
-175 52 -334 75 -349 51 -9 -13 2 -51 14 -51 27 0 59 -21 54 -35 -8 -19 -34
-19 -48 0 -12 17 -81 24 -239 25 -118 0 -121 8 -23 61 146 79 471 169 611 169
101 0 -46 62 -192 81 -131 18 -240 20 -318 8 -170 -26 -263 -52 -305 -85 -8
-6 -25 -15 -37 -18 -18 -6 -21 -4 -16 14 3 12 14 27 24 33 11 7 19 17 19 24 0
7 7 13 16 13 8 0 31 12 51 28 20 15 74 47 121 72 47 25 87 50 89 56 2 6 -20
20 -49 30 -32 12 -53 25 -53 34 0 16 78 71 182 129 37 20 68 42 71 49 2 7 -12
19 -32 27 -20 9 -36 22 -36 30 0 16 91 68 193 110 74 31 104 55 68 55 -45 0
-18 24 79 70 30 15 72 32 93 39 20 7 37 16 37 20 0 39 -366 41 -500 2 -89 -26
-235 -95 -306 -144 -115 -80 -246 -237 -315 -379 -13 -27 -28 -48 -35 -48 -7
0 -54 55 -105 123 -130 172 -149 196 -189 237 -19 19 -54 58 -77 85 -104 125
-402 372 -638 530 -505 336 -1050 545 -1622 621 -142 19 -654 27 -818 13z
m169 -472 c10 -90 5 -107 -28 -107 -27 0 -30 9 -40 122 -4 52 -3 57 17 61 38
7 42 2 51 -76z m350 75 c6 -10 -5 -157 -13 -170 -3 -6 -19 -8 -34 -5 l-28 6 7
81 c3 44 8 84 11 89 6 10 51 9 57 -1z m426 -49 c0 -3 -16 -55 -35 -114 -19
-60 -35 -115 -35 -124 0 -20 -23 -19 -43 3 -15 17 -14 25 15 118 17 54 32 105
34 112 3 12 64 18 64 5z m-1183 -93 c36 -130 37 -144 19 -159 -9 -8 -19 -12
-21 -9 -3 3 -20 59 -39 124 -23 83 -30 121 -22 126 26 18 40 0 63 -82z m1279
65 c3 -8 -14 -65 -39 -127 -24 -62 -47 -121 -50 -130 -4 -10 -11 -18 -17 -18
-25 0 -20 40 21 161 34 100 48 129 62 129 10 0 20 -7 23 -15z m-1368 -120 c23
-68 42 -131 42 -140 0 -23 -28 -18 -35 8 -4 12 -25 68 -47 125 -22 56 -37 109
-34 117 14 38 34 8 74 -110z m1797 -7 c14 -6 25 -14 25 -17 0 -9 -164 -293
-230 -399 l-27 -43 -16 25 c-10 14 -17 30 -17 36 0 5 24 52 53 103 29 50 80
140 112 200 33 59 63 107 67 107 4 0 19 -5 33 -12z m-2213 -51 c16 -28 62
-113 103 -187 41 -74 75 -142 75 -151 0 -9 -8 -27 -18 -39 l-19 -23 -110 194
c-149 262 -138 238 -111 249 42 16 53 10 80 -43z m2345 -8 c19 -12 33 -25 31
-29 -7 -17 -323 -489 -329 -489 -3 -1 -12 14 -21 31 -15 33 -15 33 49 136 35
57 100 164 145 238 44 74 83 134 86 134 2 0 20 -9 39 -21z m-2427 -131 c158
-264 190 -319 190 -331 -1 -14 -28 -52 -34 -46 -2 2 -44 67 -93 144 -49 77
-119 185 -156 239 l-66 100 27 17 c15 10 32 18 37 18 6 1 48 -63 95 -141z
m1352 92 c340 -75 623 -339 724 -677 22 -72 27 -115 31 -234 l5 -145 -43 -13
c-146 -44 -243 -144 -264 -271 l-7 -45 31 42 c42 58 120 117 188 144 81 31
224 32 304 0 83 -32 145 -90 164 -154 15 -51 15 -52 -7 -66 -13 -8 -46 -38
-74 -66 -39 -40 -54 -63 -67 -111 -26 -94 -21 -102 24 -35 46 69 92 111 159
143 63 31 209 31 294 0 33 -12 62 -19 65 -16 12 12 -81 83 -133 103 -30 11
-81 23 -116 27 l-62 7 5 34 c12 74 96 143 206 170 93 22 194 0 275 -62 l34
-26 7 38 c6 36 4 40 -39 78 l-46 40 23 40 c13 23 43 52 71 70 45 27 58 30 145
32 l95 2 13 63 c19 95 64 177 144 259 l70 74 66 -70 c74 -79 195 -227 240
-295 42 -62 95 -152 91 -155 -2 -2 -52 -10 -113 -19 -312 -47 -536 -138 -682
-279 -53 -51 -55 -63 -5 -39 60 31 240 72 342 78 144 9 421 -25 488 -60 21
-11 9 -13 -84 -14 -108 -1 -278 -16 -308 -28 -30 -11 -16 14 14 26 17 7 28 15
26 18 -3 2 -49 4 -102 3 -117 -3 -257 -36 -363 -86 -208 -99 -379 -288 -459
-507 -24 -65 -27 -87 -27 -203 1 -120 3 -135 28 -188 26 -58 47 -68 47 -23 0
37 26 102 67 164 50 78 258 284 281 280 10 -2 24 7 34 24 21 33 38 36 38 9 0
-34 19 -33 61 3 46 39 163 103 249 135 30 12 57 21 59 21 2 0 -34 -39 -80 -87
-196 -208 -306 -403 -354 -634 -21 -101 -19 -239 5 -326 23 -83 65 -183 77
-183 11 0 168 323 188 388 9 28 19 52 21 52 3 0 20 -11 38 -25 18 -14 35 -25
39 -25 3 0 15 29 26 64 28 88 87 186 111 186 3 0 20 -14 38 -31 l31 -31 31 48
c35 56 64 128 86 222 9 37 20 71 25 76 4 4 15 -19 24 -53 17 -59 37 -77 49
-45 8 22 26 8 26 -21 0 -13 5 -27 10 -30 6 -3 10 1 10 11 0 9 20 59 45 111 32
68 48 92 57 87 7 -5 28 -18 47 -31 19 -13 46 -23 60 -23 55 0 54 4 48 -281
-10 -559 -98 -978 -306 -1464 -176 -410 -380 -744 -606 -993 -55 -60 -58 -62
-93 -56 -21 4 -968 8 -2107 9 l-2069 2 -49 53 c-101 111 -255 330 -367 525
-179 309 -348 734 -435 1087 -64 260 -105 620 -105 923 l0 181 47 13 c26 6 62
23 80 37 l32 24 15 -22 c8 -13 37 -60 64 -106 l49 -83 13 31 c14 33 25 38 34
15 10 -27 23 -16 36 30 7 25 16 45 20 45 5 0 14 -24 21 -52 22 -93 49 -162 85
-216 29 -44 38 -51 47 -40 12 15 62 48 72 48 12 0 86 -127 106 -182 12 -32 24
-58 26 -58 3 0 18 9 35 21 16 12 31 20 33 18 1 -2 28 -60 58 -129 31 -69 76
-163 101 -209 25 -47 46 -88 46 -93 0 -25 22 -1 45 50 78 170 89 295 41 476
-65 243 -162 410 -348 598 -54 54 -97 98 -95 98 2 0 48 -17 103 -38 110 -42
177 -78 228 -123 19 -16 36 -29 39 -29 3 0 8 12 12 28 7 27 7 27 23 7 10 -11
36 -32 58 -47 140 -90 324 -332 324 -425 0 -52 19 -48 45 10 47 102 56 209 29
330 -77 343 -409 621 -783 657 -184 18 -239 7 -118 -23 64 -16 137 -44 137
-52 0 -2 -21 3 -47 11 -79 25 -159 34 -353 41 -210 7 -212 13 -19 55 88 19
134 22 299 22 195 0 195 0 310 -35 63 -20 124 -40 135 -44 32 -13 -42 61 -111
111 -136 97 -342 168 -611 210 -62 9 -113 20 -113 23 0 13 95 158 160 246 81
110 217 265 231 265 5 0 41 -31 79 -70 78 -79 123 -161 144 -260 13 -64 13
-65 42 -60 110 19 215 -14 265 -83 39 -54 37 -72 -11 -102 -49 -31 -56 -46
-40 -85 l12 -30 40 34 c21 19 60 40 86 47 60 18 178 17 223 -1 90 -36 169
-116 169 -172 0 -25 -3 -27 -57 -34 -83 -10 -155 -39 -205 -83 -24 -22 -41
-41 -38 -44 3 -3 32 4 65 16 85 29 213 30 277 0 57 -26 129 -91 175 -158 l35
-50 -7 45 c-11 73 -44 136 -94 182 -26 24 -56 48 -66 54 -17 9 -18 14 -6 57
17 58 65 108 141 147 106 54 246 56 356 6 57 -26 145 -102 175 -151 16 -25 19
-26 19 -10 0 76 -61 180 -132 226 -43 28 -48 35 -48 68 1 106 118 220 246 238
73 10 36 28 -59 28 -72 0 -88 -4 -135 -29 -62 -35 -105 -88 -122 -154 -21 -81
-19 -78 -37 -59 -12 12 -17 44 -21 139 -4 104 -1 137 17 208 23 92 81 223 132
297 87 126 239 253 397 332 55 28 196 71 272 84 73 12 260 5 342 -13z m1472
-156 c9 -3 16 -12 16 -19 0 -7 -49 -68 -109 -136 -103 -118 -181 -199 -181
-188 0 3 39 56 86 119 47 63 104 141 127 172 48 66 41 60 61 52z m-3249 -109
c85 -113 99 -134 93 -141 -7 -6 -202 214 -206 231 -2 9 4 15 15 15 11 0 49
-41 98 -105z m56 -167 c218 -216 317 -323 308 -332 -2 -2 -29 -7 -59 -11 l-55
-7 -20 39 c-11 21 -120 139 -242 263 -123 124 -223 227 -223 230 0 2 12 14 28
27 15 12 27 22 27 23 0 0 106 -105 236 -232z m3303 209 l29 -24 -225 -224
c-125 -123 -237 -242 -250 -263 -24 -39 -26 -40 -81 -40 -31 -1 -57 2 -57 6 0
15 536 568 550 568 3 0 18 -11 34 -23z m-3927 -313 l45 -26 -23 -24 c-22 -24
-39 -24 -39 0 0 7 -9 25 -20 39 -36 45 -26 48 37 11z m4341 -16 c-8 -13 -20
-34 -27 -47 l-13 -23 -29 28 -30 28 33 18 c18 9 44 17 57 18 22 0 22 -1 9 -22z
m-3813 -107 c79 -35 125 -71 172 -135 62 -84 87 -173 81 -285 -3 -48 -11 -97
-17 -110 -12 -22 -13 -22 -60 22 -27 25 -66 54 -87 65 -54 27 -148 45 -199 38
-39 -6 -43 -5 -49 18 -3 13 -23 46 -44 73 -49 61 -134 107 -227 124 -39 7 -74
15 -78 19 -12 11 8 53 43 86 40 40 113 80 181 99 79 22 220 15 284 -14z m3545
4 c74 -30 139 -77 170 -124 16 -24 27 -47 25 -51 -3 -5 -35 -13 -71 -19 -123
-22 -248 -106 -274 -186 -11 -33 -11 -33 -78 -34 -110 -1 -220 -45 -275 -111
-14 -16 -30 -30 -36 -30 -17 0 -33 111 -29 200 3 70 10 98 33 146 53 109 147
187 265 221 61 18 212 11 270 -12z m-3078 -226 c44 -23 91 -78 106 -125 12
-40 16 -37 -71 -54 -33 -7 -74 -18 -93 -26 -45 -19 -44 -19 -44 24 0 30 -14
108 -32 181 -4 17 37 31 72 23 14 -3 41 -13 62 -23z m2437 15 c2 -2 -4 -25
-13 -51 -10 -26 -20 -78 -23 -114 l-6 -67 -31 13 c-17 7 -64 20 -104 28 -41 9
-76 18 -79 21 -10 10 52 120 78 139 40 29 101 47 139 40 19 -3 37 -7 39 -9z
m-4406 -408 c38 -16 67 -55 67 -91 0 -21 -5 -25 -30 -25 -17 0 -48 9 -70 20
l-39 20 2 -27 c2 -27 -7 -32 -76 -48 -24 -5 -27 -8 -17 -20 20 -24 -21 -19
-61 8 -41 27 -47 60 -19 105 38 62 163 92 243 58z m6407 -2 c50 -20 80 -61 80
-108 0 -42 -36 -74 -67 -58 -10 5 -32 17 -50 26 -17 9 -42 15 -55 14 -19 -3
-23 1 -21 20 3 27 2 27 -48 1 -48 -24 -82 -22 -88 6 -5 29 28 82 63 99 41 20
135 20 186 0z m-6290 -164 c48 -13 98 -67 115 -123 7 -25 11 -47 8 -50 -2 -3
-26 8 -51 24 -26 16 -87 38 -137 50 -49 12 -94 26 -100 31 -13 12 27 43 80 62
50 18 44 18 85 6z m6105 -14 c47 -21 83 -51 74 -61 -3 -2 -50 -14 -104 -26
-97 -20 -167 -48 -180 -69 -14 -23 -23 2 -13 38 16 59 45 99 91 121 53 27 70
26 132 -3z m-6471 -49 c14 -10 16 -19 9 -47 -12 -44 -44 -67 -123 -84 -36 -7
-74 -17 -84 -21 -17 -8 -19 -5 -13 34 7 51 28 86 70 111 37 23 114 27 141 7z
m6873 -7 c40 -24 62 -57 70 -106 6 -36 5 -37 -18 -30 -13 3 -51 14 -84 22 -83
22 -92 28 -99 69 -4 19 -12 35 -18 35 -7 0 -6 5 2 15 19 22 107 20 147 -5z
m-6610 -42 c35 -17 73 -73 73 -108 l0 -28 -51 15 c-63 19 -181 14 -226 -9 -18
-9 -33 -12 -33 -7 0 24 32 83 57 102 71 58 115 66 180 35z m6373 -16 c32 -24
70 -89 70 -121 0 -22 -2 -23 -17 -9 -37 31 -81 41 -166 35 -45 -3 -93 -9 -106
-13 -23 -7 -24 -5 -18 25 21 104 148 149 237 83z m-6691 -2280 c37 -18 52 -42
28 -42 -8 0 -20 -7 -27 -15 -22 -27 -274 -152 -307 -153 -41 -1 -42 13 -6 79
61 112 219 179 312 131z m7036 -12 c64 -31 129 -98 151 -155 9 -25 15 -47 13
-50 -13 -13 -210 71 -304 130 -22 14 -50 31 -62 37 -31 15 -29 25 10 49 42 27
124 22 192 -11z m-6915 -165 c19 -22 -3 -42 -123 -113 -136 -80 -162 -92 -190
-92 -12 0 -28 -5 -35 -12 -16 -16 -26 -4 -18 25 17 67 115 156 211 189 63 22
138 23 155 3z m6807 -25 c76 -38 158 -123 167 -176 9 -45 3 -51 -23 -25 -12
12 -29 21 -39 21 -54 0 -322 157 -322 188 0 42 124 37 217 -8z m-6677 -155
c25 -23 26 -35 2 -35 -11 0 -57 -23 -103 -51 -46 -28 -132 -75 -191 -104 -58
-30 -108 -60 -111 -67 -3 -7 -6 5 -6 27 -2 111 197 261 336 252 33 -2 60 -10
73 -22z m6501 5 c126 -40 249 -154 249 -232 l0 -38 -21 21 c-12 12 -46 32 -77
46 -88 38 -174 84 -203 107 -14 11 -42 34 -62 50 -39 29 -39 42 -3 56 32 13
48 12 117 -10z m-6417 -170 c31 -11 36 -50 8 -50 -10 0 -34 -11 -53 -26 -42
-31 -260 -143 -287 -147 -11 -2 -27 -9 -36 -16 -14 -12 -16 -10 -16 16 0 31
16 60 64 112 85 91 235 144 320 111z m6346 -16 c110 -51 198 -136 216 -208 7
-29 7 -29 -17 -13 -13 10 -33 17 -44 17 -11 0 -33 7 -50 16 -16 8 -70 36 -120
62 -49 25 -91 50 -93 54 -2 4 -7 8 -12 8 -5 0 -22 14 -40 31 -41 42 -27 59 49
59 39 0 73 -8 111 -26z m-6210 -169 c17 -9 30 -20 30 -26 0 -6 -4 -8 -9 -4
-14 8 -61 -16 -61 -32 0 -8 -54 -39 -122 -72 -68 -31 -157 -81 -198 -109 -73
-50 -75 -51 -78 -27 -9 66 82 186 179 236 96 49 203 63 259 34z m6111 -15
c110 -41 225 -159 236 -241 3 -21 2 -39 -1 -39 -4 0 -36 20 -71 45 -35 25
-112 68 -172 96 -59 27 -124 58 -145 67 -23 11 -32 20 -25 24 8 5 0 12 -20 20
-18 7 -33 15 -33 19 0 4 15 14 33 23 40 21 122 15 198 -14z m-3381 -636 l35
-6 39 -161 c121 -509 147 -611 166 -637 11 -15 17 -30 13 -34 -11 -10 -271 -7
-278 4 -3 6 0 13 9 16 23 9 27 30 15 84 -12 57 -28 66 -101 56 -24 -3 -48 -5
-55 -5 -14 -1 -33 -54 -33 -91 0 -15 7 -33 15 -40 29 -24 2 -30 -135 -30
l-139 0 19 33 c21 35 28 63 135 512 37 154 68 286 71 293 4 13 157 17 224 6z
m638 -4 l205 0 44 -47 43 -48 0 -195 c0 -211 0 -209 -59 -273 l-25 -28 29 -87
c16 -47 42 -101 57 -118 16 -17 28 -34 28 -38 0 -3 -58 -6 -130 -6 l-130 0 0
28 c0 15 -15 69 -32 119 l-33 93 -38 0 -39 0 4 -89 c2 -76 6 -93 26 -113 12
-14 19 -28 15 -31 -8 -9 -277 -9 -286 -1 -4 4 4 21 16 38 22 31 22 35 22 392
0 337 -1 363 -18 382 -18 20 -18 21 10 25 15 3 41 3 57 1 16 -2 121 -4 234 -4z
m-2148 -37 c-19 -36 -20 -57 -20 -393 0 -340 1 -356 21 -389 11 -18 19 -35 17
-36 -5 -5 -268 -9 -270 -4 -1 2 6 15 14 29 13 19 17 57 20 163 2 75 0 137 -3
137 -3 0 -27 -55 -54 -122 -50 -128 -101 -238 -111 -238 -7 0 -64 127 -109
245 -20 55 -42 104 -46 109 -5 6 -9 -48 -9 -125 0 -113 3 -141 19 -172 14 -27
16 -39 8 -42 -20 -6 -257 -13 -257 -8 0 3 9 16 20 30 19 25 20 41 20 403 0
362 -1 378 -20 403 -11 14 -20 28 -20 31 0 3 57 6 128 6 l127 -1 69 -210 c40
-121 73 -205 77 -197 4 7 37 102 74 210 46 135 72 198 84 201 9 3 67 5 129 6
l112 1 -20 -37z m979 -9 l41 -47 0 -189 c0 -210 -3 -222 -65 -277 l-36 -31
-124 0 -125 0 0 -91 c0 -74 4 -98 20 -124 l20 -32 -46 -7 c-61 -8 -229 -8
-237 0 -4 4 4 21 16 38 22 31 22 33 20 389 -3 345 -4 360 -24 388 l-20 29 259
0 260 0 41 -46z m2066 -66 c15 -62 55 -235 90 -385 63 -269 73 -301 103 -336
8 -9 12 -20 9 -23 -9 -9 -287 7 -287 16 0 5 8 16 17 25 15 16 15 22 2 74 l-14
56 -74 0 -74 0 -14 -54 c-12 -47 -11 -56 2 -71 32 -35 19 -40 -102 -40 -65 0
-128 3 -140 6 l-22 6 21 28 c13 18 39 108 74 256 69 297 124 526 129 542 3 9
38 12 129 12 l124 0 27 -112z m802 49 l53 -54 0 -332 0 -331 -42 -47 -43 -46
-253 5 c-138 3 -255 8 -259 11 -3 4 3 17 15 30 20 21 21 35 28 372 7 368 8
356 -34 438 -2 4 105 7 239 7 l242 0 54 -53z m335 43 l120 0 -16 -25 c-14 -21
-16 -72 -16 -408 0 -321 2 -386 15 -403 8 -10 15 -23 15 -28 0 -8 -270 1 -279
10 -3 2 6 15 18 28 23 24 23 25 24 397 2 342 0 376 -15 399 -22 30 -23 44 -2
36 9 -3 70 -6 136 -6z m-5012 -7 c0 -3 -7 -14 -15 -23 -8 -9 -65 -126 -126
-261 l-110 -244 -2 -140 c-2 -123 0 -143 17 -168 10 -15 17 -29 15 -31 -10 -9
-279 -18 -279 -9 0 6 9 18 20 28 18 17 20 31 20 172 l0 154 -100 214 c-55 119
-111 233 -125 255 l-25 40 73 0 c41 0 95 3 121 6 29 4 46 3 46 -3 0 -20 112
-283 119 -279 3 3 31 67 61 144 48 123 58 141 80 145 43 7 210 7 210 0z m5787
-60 c47 -38 56 -65 51 -153 l-3 -55 -100 0 -100 0 2 30 c1 16 -3 33 -10 37 -7
4 -45 8 -84 8 l-73 0 0 -85 0 -85 93 0 c160 0 192 -7 237 -53 l40 -39 0 -177
0 -177 -43 -42 -43 -42 -195 8 c-178 7 -198 10 -223 29 -57 45 -71 73 -75 151
l-3 73 103 -3 104 -3 3 -37 3 -38 85 0 84 0 0 84 0 83 -82 6 c-46 4 -111 7
-145 7 -58 0 -66 3 -103 36 l-40 36 0 184 0 184 37 41 37 41 200 -7 201 -7 42
-35z m-6625 -11 c39 -37 41 -41 46 -114 2 -41 1 -78 -4 -81 -5 -2 -50 -8 -101
-12 l-91 -7 -4 28 -3 29 -73 -1 c-40 -1 -76 -5 -80 -9 -9 -9 -15 -386 -7 -452
l6 -53 74 0 c85 0 85 0 85 96 l0 64 -39 0 c-46 0 -49 5 -52 100 l-3 65 60 7
c32 3 97 7 144 9 l85 2 0 -212 0 -212 -45 -43 -45 -43 -189 -7 -189 -7 -43 42
-44 43 0 346 0 346 45 44 46 45 167 11 c92 6 177 12 190 13 14 0 39 -14 64
-37z m7138 24 l195 -11 3 -112 c1 -62 0 -113 -3 -113 -4 0 -22 12 -42 27 -31
24 -46 27 -124 31 l-90 4 3 -83 3 -84 125 -2 125 -1 0 -94 c0 -78 -2 -92 -15
-89 -8 3 -66 6 -127 9 l-113 4 0 -90 0 -89 83 -6 c74 -4 86 -2 124 19 23 13
44 24 47 24 3 0 6 -50 6 -111 l0 -111 -142 6 c-381 17 -379 16 -340 59 16 17
17 51 17 396 0 344 -2 379 -18 404 l-17 27 52 -1 c29 -1 141 -6 248 -13z
m-2190 -1155 c289 -14 942 -51 955 -55 32 -9 -879 -12 -2595 -10 -1973 2
-2451 4 -2415 10 24 4 433 30 722 45 117 6 353 14 525 19 425 11 2529 4 2808
-9z m-2015 -331 l0 -25 -513 -3 c-430 -2 -518 0 -547 12 -19 8 -35 22 -35 31
0 14 57 15 548 13 l547 -3 0 -25z m2039 22 c10 -17 -13 -35 -60 -46 -34 -8
-200 -10 -542 -8 -522 3 -516 2 -498 47 5 13 75 15 550 15 300 0 547 -4 550
-8z m-2050 -148 c22 -8 20 -31 -3 -44 -23 -12 -377 -13 -624 -1 -179 9 -237
25 -126 35 35 3 78 8 94 9 54 7 643 7 659 1z m1755 -11 c23 -9 23 -10 5 -18
-52 -21 -781 -34 -802 -13 -17 17 -15 36 6 42 30 9 766 -1 791 -11z m-1759
-153 c0 -11 -7 -23 -15 -26 -17 -7 -399 14 -435 24 -25 7 130 16 343 20 102 2
107 1 107 -18z m1363 3 c37 -3 66 -7 65 -8 -2 -2 -105 -9 -231 -16 -240 -13
-267 -10 -236 27 12 15 31 16 174 10 88 -4 191 -9 228 -13z"/>
<path d="M5445 8056 c-160 -76 -223 -269 -156 -482 27 -86 37 -180 21 -199 -8
-9 -12 -41 -12 -76 1 -76 25 -120 72 -135 19 -6 36 -18 38 -25 1 -8 -1 -63 -5
-123 l-8 -110 -80 -31 c-127 -49 -202 -94 -279 -166 -67 -62 -76 -68 -156 -88
-117 -29 -201 -71 -264 -131 -112 -106 -156 -256 -127 -433 7 -44 5 -53 -30
-112 -71 -122 -109 -269 -109 -422 0 -57 -4 -81 -19 -101 -21 -30 -60 -120
-85 -197 -45 -139 -57 -372 -34 -672 l12 -163 196 0 196 0 58 148 c32 81 67
180 77 221 22 85 25 216 8 320 l-11 68 54 51 c65 61 104 130 134 231 l21 73
23 -38 c13 -22 47 -65 77 -96 29 -31 53 -66 53 -77 0 -11 5 -89 11 -172 10
-134 9 -156 -6 -194 -17 -46 -23 -167 -10 -224 7 -33 -4 -41 -25 -16 -24 29
-21 33 -91 -158 -21 -60 -39 -115 -39 -123 0 -12 107 -14 735 -14 404 0 735 1
735 3 0 13 -114 298 -126 315 -1 2 -14 -9 -29 -23 -30 -31 -43 -27 -23 7 17
31 17 205 -1 237 -10 18 -12 53 -7 145 13 238 11 231 76 301 32 35 66 78 76
96 19 38 19 39 49 -61 23 -74 74 -157 135 -218 l51 -49 -10 -44 c-19 -84 -23
-193 -11 -272 14 -93 32 -150 102 -314 l52 -123 188 0 c103 0 188 1 189 3 8
32 28 369 29 471 0 220 -42 421 -117 556 -20 36 -26 67 -34 160 -10 136 -34
226 -89 335 l-40 80 1 125 c1 100 -3 138 -20 192 -29 90 -95 178 -173 228 -60
39 -226 100 -271 100 -14 0 -40 18 -67 46 -64 67 -171 133 -288 179 -72 29
-102 46 -106 60 -3 11 -6 67 -6 125 l0 105 38 16 c64 27 94 132 57 202 -12 23
-12 55 -4 202 8 147 7 184 -6 241 -19 84 -64 169 -118 224 l-42 42 -3 -27 c-3
-20 -7 -25 -20 -20 -100 42 -115 46 -124 31 -7 -13 -14 -13 -56 -1 -74 23
-168 19 -227 -9z m219 -71 c63 -22 70 -23 92 -8 22 14 26 13 57 -6 19 -12 44
-21 55 -21 11 0 30 -13 41 -29 29 -40 26 -44 -13 -17 -31 21 -50 24 -189 30
-195 9 -218 2 -282 -89 -54 -75 -84 -140 -85 -180 0 -23 -3 -27 -10 -15 -24
38 0 178 43 253 59 101 159 129 291 82z m114 -189 c15 -8 38 -26 52 -42 l25
-27 -25 7 c-14 4 -48 9 -77 13 l-51 6 9 -39 c14 -61 12 -64 -30 -64 l-39 0 6
47 5 46 -78 -6 -77 -6 23 26 c45 47 97 64 177 57 30 -2 66 -11 80 -18z m-148
-163 c-1 -20 -20 -31 -80 -45 -36 -8 -73 -18 -82 -22 -13 -6 -15 -3 -11 13 7
27 26 42 66 51 43 11 107 12 107 3z m226 -8 c11 -3 26 -16 32 -30 18 -38 15
-47 -10 -31 -13 7 -47 21 -75 31 -94 30 -55 51 53 30z m-108 -111 c30 -20 23
-28 -12 -14 -39 15 -92 12 -127 -6 -42 -21 -51 -8 -14 22 26 22 37 24 80 19
28 -3 61 -13 73 -21z m-28 -64 c11 -7 6 -10 -21 -10 -20 0 -51 -3 -68 -6 -19
-4 -31 -2 -31 4 0 19 95 28 120 12z m-350 -144 c0 -13 3 -39 6 -57 5 -25 4
-31 -5 -23 -15 13 -28 64 -23 87 5 25 22 21 22 -7z m634 9 c6 -16 -12 -75 -23
-75 -3 0 -5 20 -3 45 4 45 15 58 26 30z m-685 -561 c-13 -15 -42 -40 -64 -57
-22 -16 -31 -27 -21 -23 16 6 17 4 6 -10 -20 -23 -85 -54 -114 -54 -14 0 -37
-5 -52 -10 -45 -18 -41 0 11 47 47 41 243 148 254 138 2 -3 -6 -17 -20 -31z
m825 -22 c75 -39 183 -131 154 -132 -45 -1 -250 132 -267 173 -5 14 37 -2 113
-41z m206 -192 c170 -13 243 -36 314 -101 71 -65 105 -134 113 -228 7 -81 -3
-90 -35 -33 -12 20 -32 55 -46 77 l-25 40 6 -62 c3 -35 3 -63 -1 -63 -4 0 -20
15 -36 33 -25 29 -134 97 -155 97 -4 0 -1 -8 6 -17 15 -18 16 -18 -36 3 -11 4
-15 0 -15 -17 -1 -62 -90 -157 -168 -179 -63 -18 -184 -30 -237 -24 -82 9
-205 36 -205 45 0 5 14 16 31 24 44 23 31 27 -42 15 -88 -14 -94 -13 -79 5 9
11 10 15 1 15 -7 0 -11 10 -9 23 2 15 21 32 63 54 l60 32 -63 1 c-46 0 -64 4
-68 15 -8 20 13 45 51 61 l30 13 -42 1 c-26 0 -43 5 -43 12 0 18 78 87 106 94
16 4 23 12 20 20 -8 22 47 44 132 53 79 8 152 7 372 -9z m-895 -6 c27 -10 50
-24 52 -34 2 -9 22 -25 43 -34 42 -18 93 -72 87 -90 -3 -6 -9 -10 -13 -9 -5 1
-23 5 -39 8 l-30 7 38 -32 c20 -17 37 -40 37 -51 0 -17 -7 -19 -57 -19 l-58 0
35 -21 c58 -35 80 -60 80 -92 0 -25 -3 -28 -22 -24 -13 3 -48 9 -78 12 l-55 7
25 -21 c14 -11 29 -21 33 -21 5 0 6 -4 2 -9 -7 -13 -124 -38 -210 -46 -96 -9
-217 9 -284 43 -63 31 -108 87 -117 143 l-6 38 -30 -15 c-16 -9 -32 -13 -36
-10 -3 3 0 6 7 6 8 0 11 6 7 16 -3 8 -2 12 4 9 6 -3 10 -1 10 6 0 7 7 21 17
31 43 48 -26 -3 -166 -121 l-54 -46 5 63 c2 34 3 62 1 62 -3 0 -24 -41 -48
-92 -40 -85 -44 -90 -51 -64 -21 84 34 237 109 302 100 87 203 108 563 112
117 2 161 -2 199 -14z m-812 -756 c19 -13 23 -23 19 -45 l-5 -28 32 29 c17 16
33 27 35 25 11 -10 -26 -135 -56 -191 -32 -60 -118 -148 -145 -148 -15 0 -14
18 4 100 10 46 -13 8 -43 -70 l-29 -75 -3 122 c-3 137 11 225 52 317 l26 59
44 -39 c24 -22 55 -47 69 -56z m2210 25 c42 -88 57 -180 56 -338 l0 -140 -25
88 c-33 121 -43 136 -37 54 7 -78 1 -82 -53 -34 -72 62 -133 183 -150 292 l-7
47 26 -26 c33 -33 51 -34 43 -2 -5 21 -1 28 29 42 20 9 46 29 58 45 12 15 25
28 28 28 3 1 18 -25 32 -56z m-1358 -269 c-45 -39 -147 -91 -197 -100 -32 -6
-32 -6 12 19 25 14 81 46 125 71 95 55 115 58 60 10z m464 -32 c31 -20 76 -46
101 -59 37 -19 40 -22 15 -17 -73 15 -206 89 -226 126 -10 18 -9 19 21 3 18
-9 58 -33 89 -53z m-369 -36 c0 -21 -119 -74 -200 -91 -59 -12 -23 11 85 54
100 40 115 45 115 37z m298 -41 c77 -36 92 -51 40 -40 -46 10 -158 64 -158 76
0 14 30 4 118 -36z m-1478 -278 c21 -54 30 -93 31 -139 1 -62 1 -63 13 -26 6
20 14 40 19 44 20 20 -1 -212 -37 -396 l-12 -65 -22 115 c-12 63 -25 137 -28
163 -9 61 -21 44 -30 -40 -3 -35 -10 -66 -14 -68 -13 -8 -25 100 -24 215 1 93
21 208 50 290 7 19 13 8 54 -93z m2635 -64 c19 -93 19 -212 0 -304 -9 -40 -17
-75 -19 -77 -2 -2 -10 38 -17 90 l-14 93 -13 -60 c-25 -115 -43 -170 -52 -155
-18 32 -40 187 -40 278 0 96 5 106 27 49 11 -30 12 -28 12 33 1 54 7 79 37
140 l37 75 14 -45 c7 -25 20 -77 28 -117z m-1470 77 c-10 -16 -79 -49 -125
-59 -54 -12 -46 -5 42 34 81 36 92 40 83 25z m270 -25 c39 -19 61 -35 50 -35
-27 0 -97 33 -114 53 -18 22 -18 22 64 -18z"/>
<path d="M5158 6644 c-38 -20 -36 -28 2 -9 17 9 30 18 30 20 0 7 -1 6 -32 -11z"/>
<path d="M6490 6321 c0 -9 30 -24 36 -18 2 1 -6 8 -16 15 -11 7 -20 8 -20 3z"/>
<path d="M4817 7356 c-51 -19 -67 -34 -67 -65 0 -16 -8 -31 -21 -39 -24 -15
-49 -70 -49 -107 0 -36 12 -30 35 18 13 26 32 48 53 57 24 11 32 22 32 41 0
29 58 89 86 89 8 0 12 5 9 10 -8 13 -32 12 -78 -4z"/>
<path d="M6400 7298 c-24 -11 -24 -11 17 -19 96 -18 181 -75 230 -155 11 -18
12 -18 12 6 0 34 -23 97 -46 122 -46 51 -149 73 -213 46z"/>
<path d="M4210 6907 c0 -19 -3 -42 -6 -51 -5 -13 1 -16 32 -16 56 -1 117 -32
143 -73 12 -20 27 -63 33 -97 l10 -62 18 51 c31 93 86 131 187 131 61 0 163
-39 192 -73 14 -18 41 -23 41 -9 0 5 -14 28 -30 50 -35 49 -97 96 -147 113
-50 16 -141 7 -192 -19 l-43 -23 -20 26 c-27 35 -109 75 -169 82 l-49 6 0 -36z"/>
<path d="M7022 6851 c-28 -10 -60 -25 -70 -34 -20 -18 -42 -22 -42 -9 0 12
-65 41 -109 48 -50 8 -140 -18 -180 -52 -62 -52 -95 -123 -36 -76 71 56 211
68 272 23 32 -24 60 -75 72 -132 l7 -34 17 56 c29 97 104 147 207 137 22 -2
40 -2 40 0 0 2 -5 23 -11 48 l-11 44 -52 0 c-28 -1 -75 -9 -104 -19z"/>
<path d="M2745 6673 c4 -43 8 -79 9 -80 0 -1 24 3 51 8 94 18 202 -12 273 -76
59 -53 101 -128 109 -195 3 -27 9 -50 13 -50 16 0 33 92 27 148 -13 144 -121
250 -308 302 -41 11 -98 20 -127 20 l-54 0 7 -77z"/>
<path d="M8494 6725 c-133 -29 -236 -103 -292 -209 -23 -44 -27 -62 -27 -141
0 -68 5 -100 20 -130 l19 -40 6 75 c11 133 72 230 183 287 45 24 64 27 144 28
l91 0 6 35 c3 19 6 52 6 73 l0 37 -47 -1 c-27 0 -76 -7 -109 -14z"/>
<path d="M4004 6525 c3 -8 9 -22 12 -30 4 -10 -8 -21 -40 -36 -40 -19 -92 -66
-83 -75 2 -2 25 8 52 21 59 30 113 32 147 5 l25 -19 12 26 c11 23 16 25 57 20
26 -2 66 -18 95 -35 55 -35 63 -26 26 29 -48 71 -140 102 -194 64 -18 -13 -22
-13 -34 1 -12 15 -61 44 -75 44 -3 0 -3 -7 0 -15z"/>
<path d="M7111 6303 c-35 -18 -91 -94 -91 -125 0 -13 9 -8 36 22 45 49 99 69
143 51 22 -10 34 -10 51 -1 27 14 70 5 115 -25 21 -15 35 -20 35 -12 0 23 -39
76 -67 90 -41 20 -180 20 -222 0z"/>
<path d="M8255 6050 c-22 -16 -83 -75 -135 -129 -83 -87 -102 -101 -148 -115
-37 -11 -60 -12 -78 -6 -27 11 -145 -16 -219 -50 -25 -11 -99 -25 -195 -35
-85 -9 -182 -20 -215 -25 -33 -5 -91 -9 -129 -9 l-69 -1 7 -62 c3 -34 7 -63 9
-64 2 -2 311 -4 687 -4 548 -1 685 2 691 12 27 42 148 452 137 463 -4 4 -217
44 -268 51 -28 4 -43 -2 -75 -26z"/>
<path d="M2865 6040 c-74 -23 -89 -31 -87 -46 7 -43 46 -168 94 -301 l52 -143
682 0 682 0 5 58 c2 31 3 58 2 60 -2 2 -61 10 -132 17 -255 26 -399 46 -438
60 -80 29 -262 67 -357 74 -111 9 -124 15 -243 124 -70 64 -153 128 -164 126
-3 0 -46 -13 -96 -29z"/>
<path d="M2997 5400 l16 -40 306 0 c284 0 640 13 721 27 25 5 -4 10 -100 19
-299 29 -387 34 -667 34 l-291 0 15 -40z"/>
<path d="M7640 5430 c-47 -4 -150 -13 -230 -20 -80 -7 -146 -13 -148 -15 -5
-5 99 -14 263 -25 83 -5 305 -10 495 -10 l345 0 17 40 17 40 -337 -1 c-185 -1
-375 -5 -422 -9z"/>
<path d="M3113 5213 l24 -38 154 0 c145 0 446 31 433 45 -6 5 -200 15 -487 26
l-148 5 24 -38z"/>
<path d="M7980 5240 c-14 -4 -86 -8 -161 -9 -75 -1 -158 -4 -185 -8 -81 -11
285 -52 478 -52 l156 -1 13 33 c7 17 14 35 17 40 5 10 -286 7 -318 -3z"/>
<path d="M3661 4921 l-75 -6 35 -17 c25 -13 70 -18 176 -22 138 -4 141 -4 147
17 3 12 6 25 6 30 0 8 -172 7 -289 -2z"/>
<path d="M7430 4900 l0 -30 143 6 c101 5 151 11 172 23 l30 16 -75 6 c-41 4
-119 7 -172 8 l-98 1 0 -30z"/>
<path d="M3828 4643 c17 -2 47 -2 65 0 17 2 3 4 -33 4 -36 0 -50 -2 -32 -4z"/>
<path d="M7423 4643 c15 -2 37 -2 50 0 12 2 0 4 -28 4 -27 0 -38 -2 -22 -4z"/>
<path d="M5356 3569 c-33 -117 -34 -109 18 -109 25 0 46 3 46 7 0 18 -33 139
-40 147 -5 5 -16 -16 -24 -45z"/>
<path d="M6030 3660 l0 -120 85 0 85 0 0 114 0 113 -37 7 c-21 3 -59 6 -85 6
l-48 0 0 -120z"/>
<path d="M4630 3655 l0 -115 75 0 75 0 0 115 0 115 -75 0 -75 0 0 -115z"/>
<path d="M6836 3558 c-33 -116 -34 -108 19 -108 39 0 46 3 41 18 -2 9 -10 43
-17 75 -7 32 -16 60 -20 63 -4 2 -14 -19 -23 -48z"/>
<path d="M7510 3558 c0 -112 3 -226 6 -255 l7 -51 51 -6 c92 -12 87 -28 84
258 l-3 251 -72 3 -73 3 0 -203z"/>
<path d="M10009 4149 c-7 -24 -6 -66 2 -81 7 -13 21 -18 55 -18 68 0 477 -60
489 -71 7 -7 4 -15 -7 -23 -13 -10 -32 -11 -70 -5 -61 10 -419 49 -449 49 -17
0 -19 -8 -19 -89 l0 -89 98 -11 c53 -7 164 -23 245 -37 82 -14 156 -22 165
-19 10 3 40 36 67 73 28 37 78 102 113 145 34 42 62 80 62 82 0 3 -12 5 -27 5
-16 1 -64 7 -108 15 -142 26 -614 83 -616 74z"/>
<path d="M1215 3749 c-93 -10 -200 -21 -237 -24 l-67 -6 52 -72 c29 -40 61
-80 72 -89 25 -21 62 -23 106 -4 19 8 60 17 92 20 31 3 82 9 112 12 l55 5 0
84 c0 46 -3 86 -7 88 -5 2 -84 -4 -178 -14z"/>
<path d="M10010 3675 c0 -60 4 -87 13 -90 6 -2 71 -9 142 -15 72 -5 146 -13
166 -16 35 -5 37 -3 94 71 34 44 54 79 49 84 -10 9 -364 51 -426 51 l-38 0 0
-85z"/>
<path d="M1173 3523 c-80 -3 -93 -6 -93 -21 0 -17 60 -99 113 -155 28 -29 34
-47 17 -47 -5 0 -24 -21 -41 -47 -18 -27 -55 -75 -83 -108 -49 -59 -49 -60
-24 -63 14 -2 76 4 137 12 62 9 129 16 151 16 48 0 52 12 48 115 l-3 70 -42 3
c-34 3 -43 7 -43 22 0 14 10 20 40 25 47 8 52 20 48 115 l-3 65 -65 1 c-36 0
-107 -1 -157 -3z"/>
<path d="M10012 3443 l3 -87 40 -7 c114 -19 165 -20 165 -5 0 8 25 47 56 88
l55 73 -58 6 c-32 4 -104 9 -161 13 l-103 6 3 -87z"/>
<path d="M10012 3209 l3 -94 145 -17 c80 -9 158 -17 173 -17 26 -1 27 1 16 22
-7 12 -36 55 -65 95 -29 40 -54 77 -56 82 -2 5 -52 12 -111 16 l-108 7 3 -94z"/>
</g>
</svg>
